<svg xmlns="http://www.w3.org/2000/svg" width="22.268" height="20" viewBox="0 0 22.268 20">
  <path id="certificate" d="M46.268,72.768V88.893a.768.768,0,0,1-.768.768H44.348a.384.384,0,0,1-.384-.384V87.8a.384.384,0,0,1,.116-.274,3.456,3.456,0,0,0,.172-4.754q-.082-.093-.171-.179a.384.384,0,0,1-.117-.275V77.375A3.071,3.071,0,0,1,40.893,74.3H29.375A3.071,3.071,0,0,1,26.3,77.375v6.911a3.071,3.071,0,0,1,3.071,3.071h9.546a.386.386,0,0,1,.275.117l.046.046a.386.386,0,0,1,.116.275v1.483a.384.384,0,0,1-.384.384H24.768A.768.768,0,0,1,24,88.893V72.768A.768.768,0,0,1,24.768,72H45.5A.768.768,0,0,1,46.268,72.768ZM30.911,78.143h8.447a.384.384,0,0,0,0-.768H30.911a.384.384,0,0,0,0,.768Zm0,3.071h8.447a.384.384,0,1,0,0-.768H30.911a.384.384,0,1,0,0,.768Zm7.432,2.3H33.924a.393.393,0,0,0-.4.358.384.384,0,0,0,.383.409H38.18a.143.143,0,0,0,.139-.106,3.433,3.433,0,0,1,.157-.464.144.144,0,0,0-.133-.2Zm5.334-.242a2.688,2.688,0,1,0-3.793,3.793c.035.03.066.057.1.08a2.688,2.688,0,0,0,3.7-3.874Zm-2.016,5.233a3.464,3.464,0,0,1-1.337-.27.144.144,0,0,0-.2.133v3.244a.384.384,0,0,0,.581.329l.757-.454a.384.384,0,0,1,.4,0l.757.454a.384.384,0,0,0,.581-.329V88.373a.144.144,0,0,0-.2-.133A3.466,3.466,0,0,1,41.661,88.509Z" transform="translate(-24 -72)" fill="#af151f"/>
</svg>
